<?xml version="1.0" encoding="UTF-8"?>
<svg xmlns="http://www.w3.org/2000/svg" xmlns:xlink="http://www.w3.org/1999/xlink" width="200px" height="100px" viewBox="0 0 200 100" version="1.1">
<g id="surface1">
<path style=" stroke:none;fill-rule:nonzero;fill:rgb(98.039216%,74.117647%,16.470588%);fill-opacity:1;" d="M 99.28125 42.21875 C 97.828125 43.25 97.265625 45.46875 97.96875 47.4375 C 98.28125 48.359375 99.015625 49.4375 99.671875 49.921875 L 100.046875 50.21875 L 100.875 49.34375 C 102.890625 47.171875 102.8125 43.65625 100.703125 42.21875 C 100.09375 41.78125 99.875 41.796875 99.28125 42.21875 Z M 100.6875 42.515625 C 100.90625 42.6875 101.28125 43.171875 101.53125 43.5625 C 101.90625 44.203125 101.953125 44.453125 101.953125 45.625 C 101.953125 46.75 101.890625 47.078125 101.53125 47.8125 C 101.296875 48.28125 100.859375 48.921875 100.546875 49.21875 L 100 49.75 L 99.453125 49.21875 C 99.140625 48.921875 98.703125 48.28125 98.46875 47.8125 C 98.109375 47.078125 98.046875 46.75 98.046875 45.625 C 98.046875 44.453125 98.09375 44.203125 98.46875 43.5625 C 98.953125 42.765625 99.578125 42.1875 100 42.1875 C 100.15625 42.1875 100.453125 42.328125 100.6875 42.515625 Z M 100.6875 42.515625 "/>
<path style=" stroke:none;fill-rule:nonzero;fill:rgb(98.039216%,74.117647%,16.470588%);fill-opacity:1;" d="M 77.171875 46.703125 C 75.40625 47.046875 73.59375 48.515625 72.765625 50.28125 C 72.296875 51.25 72.265625 51.453125 72.265625 52.96875 C 72.265625 54.40625 72.3125 54.71875 72.671875 55.46875 C 73.234375 56.671875 73.78125 57.265625 74.8125 57.765625 C 75.578125 58.140625 75.890625 58.203125 77.03125 58.203125 C 78.703125 58.203125 79.59375 57.875 80.4375 56.96875 C 81.484375 55.828125 81.671875 54.5 81 53.140625 C 80.4375 52.03125 79.65625 51.515625 78.375 51.4375 C 77.609375 51.390625 77.28125 51.453125 76.71875 51.75 C 75.890625 52.171875 75.40625 52.90625 75.5625 53.515625 L 75.671875 53.921875 L 76.109375 53.390625 C 76.671875 52.703125 77.796875 52.40625 78.796875 52.671875 C 80.515625 53.140625 81.171875 55.4375 79.953125 56.8125 C 79.1875 57.703125 78.390625 58.03125 77.015625 58.03125 C 75.96875 58.046875 75.75 57.984375 75.0625 57.578125 C 73.640625 56.6875 72.859375 54.75 73 52.46875 C 73.21875 49.21875 76.203125 46.84375 79.421875 47.359375 C 81.40625 47.6875 83.015625 48.46875 86.078125 50.609375 C 89.3125 52.875 91.53125 54.046875 94.375 54.96875 C 98.578125 56.34375 101.4375 56.34375 105.625 54.96875 C 108.484375 54.03125 110.703125 52.859375 113.921875 50.609375 C 116.984375 48.46875 118.59375 47.6875 120.578125 47.359375 C 123.796875 46.84375 126.78125 49.21875 127 52.46875 C 127.140625 54.75 126.359375 56.6875 124.9375 57.578125 C 124.25 57.984375 124.03125 58.046875 122.984375 58.03125 C 121.609375 58.03125 120.8125 57.703125 120.046875 56.8125 C 118.828125 55.4375 119.484375 53.140625 121.203125 52.671875 C 122.203125 52.40625 123.328125 52.703125 123.890625 53.390625 L 124.328125 53.921875 L 124.4375 53.515625 C 124.59375 52.90625 124.109375 52.171875 123.28125 51.75 C 122.71875 51.453125 122.390625 51.390625 121.625 51.4375 C 120.34375 51.515625 119.5625 52.03125 119 53.140625 C 118.328125 54.5 118.515625 55.828125 119.5625 56.96875 C 120.40625 57.875 121.296875 58.203125 122.96875 58.203125 C 125.15625 58.203125 126.421875 57.40625 127.328125 55.46875 C 127.6875 54.71875 127.734375 54.40625 127.734375 52.96875 C 127.734375 51.453125 127.703125 51.25 127.234375 50.28125 C 126.609375 48.9375 125.515625 47.84375 124.203125 47.21875 C 121.453125 45.90625 118.328125 46.703125 114.109375 49.796875 C 109.78125 52.96875 106.484375 54.5625 102.578125 55.390625 C 99.421875 56.046875 95.9375 55.421875 91.796875 53.453125 C 89.6875 52.4375 88.546875 51.734375 85.890625 49.796875 C 82.359375 47.21875 79.59375 46.234375 77.171875 46.703125 Z M 77.171875 46.703125 "/>
<path style=" stroke:none;fill-rule:nonzero;fill:rgb(98.039216%,74.117647%,16.470588%);fill-opacity:1;" d="M 90.640625 47.359375 C 90.265625 47.4375 89.9375 47.515625 89.90625 47.546875 C 89.875 47.578125 90.21875 47.859375 90.6875 48.1875 C 91.671875 48.859375 92.640625 49.875 94.03125 51.671875 C 95.703125 53.828125 97.453125 54.734375 100 54.734375 C 102.65625 54.734375 104.25 53.859375 106.234375 51.34375 C 107.578125 49.625 108.46875 48.734375 109.53125 48.03125 C 110.171875 47.609375 110.171875 47.59375 109.8125 47.453125 C 109.1875 47.21875 106.984375 47.140625 106.03125 47.328125 C 104.8125 47.546875 104.09375 47.921875 102.578125 49.078125 C 101.890625 49.59375 101.03125 50.171875 100.671875 50.359375 L 100 50.6875 L 99.34375 50.359375 C 98.96875 50.171875 98.109375 49.59375 97.421875 49.078125 C 96.734375 48.546875 95.890625 47.984375 95.546875 47.8125 C 94.34375 47.234375 92.265625 47.03125 90.640625 47.359375 Z M 93.171875 47.5 C 94.53125 47.71875 95.546875 48.265625 97.09375 49.59375 C 97.859375 50.265625 98.828125 50.96875 99.234375 51.1875 L 100 51.5625 L 100.765625 51.1875 C 101.171875 50.96875 102.140625 50.265625 102.90625 49.59375 C 104.453125 48.265625 105.46875 47.71875 106.828125 47.484375 C 107.640625 47.359375 109.265625 47.421875 109.578125 47.609375 C 109.65625 47.65625 109.34375 47.9375 108.875 48.25 C 108.421875 48.546875 107.171875 49.703125 106.09375 50.796875 C 105.015625 51.875 103.859375 52.921875 103.515625 53.09375 C 101.28125 54.21875 98.71875 54.21875 96.484375 53.09375 C 96.140625 52.921875 94.984375 51.875 93.90625 50.796875 C 92.828125 49.703125 91.578125 48.546875 91.109375 48.234375 C 90.234375 47.65625 90.234375 47.578125 91.171875 47.453125 C 92.03125 47.34375 92.265625 47.34375 93.171875 47.5 Z M 93.171875 47.5 "/>
<path style=" stroke:none;fill-rule:nonzero;fill:rgb(98.039216%,74.117647%,16.470588%);fill-opacity:1;" d="M 69.4375 52.03125 C 68.671875 52.34375 68.40625 53.234375 68.828125 54.046875 C 69.28125 54.921875 70.78125 54.953125 71.234375 54.09375 C 71.890625 52.859375 70.71875 51.515625 69.4375 52.03125 Z M 70.46875 52.78125 C 70.75 53 70.796875 53.171875 70.71875 53.484375 C 70.59375 54.03125 69.953125 54.203125 69.53125 53.828125 C 69.140625 53.46875 69.140625 53.203125 69.53125 52.8125 C 69.921875 52.421875 70.03125 52.421875 70.46875 52.78125 Z M 70.46875 52.78125 "/>
<path style=" stroke:none;fill-rule:nonzero;fill:rgb(98.039216%,74.117647%,16.470588%);fill-opacity:1;" d="M 129.09375 52.265625 C 128.25 52.96875 128.4375 54.203125 129.453125 54.625 C 130.421875 55.03125 131.40625 54.3125 131.40625 53.21875 C 131.40625 52.65625 130.796875 52.03125 130.140625 51.9375 C 129.703125 51.859375 129.5 51.921875 129.09375 52.265625 Z M 130.46875 52.8125 C 130.859375 53.203125 130.859375 53.46875 130.46875 53.828125 C 130.046875 54.203125 129.40625 54.03125 129.28125 53.484375 C 129.203125 53.171875 129.25 53 129.53125 52.78125 C 129.96875 52.421875 130.078125 52.421875 130.46875 52.8125 Z M 130.46875 52.8125 "/>
<path style=" stroke:none;fill-rule:nonzero;fill:rgb(98.039216%,74.117647%,16.470588%);fill-opacity:1;" d="M 0.25 52.859375 C -0.125 53.140625 -0.015625 53.609375 0.46875 53.859375 C 0.78125 54.015625 7.546875 54.046875 34.03125 54.015625 C 66.671875 53.984375 67.21875 53.984375 67.4375 53.6875 C 67.71875 53.296875 67.71875 53.203125 67.40625 52.90625 C 67.1875 52.6875 63.921875 52.65625 33.84375 52.65625 C 6.546875 52.65625 0.484375 52.6875 0.25 52.859375 Z M 0.25 52.859375 "/>
<path style=" stroke:none;fill-rule:nonzero;fill:rgb(98.039216%,74.117647%,16.470588%);fill-opacity:1;" d="M 132.59375 52.90625 C 132.28125 53.203125 132.28125 53.296875 132.5625 53.6875 C 132.78125 53.984375 133.328125 53.984375 165.96875 54.015625 C 201.0625 54.0625 199.84375 54.078125 199.96875 53.359375 C 200.125 52.625 201.578125 52.65625 166.15625 52.65625 C 136.078125 52.65625 132.8125 52.6875 132.59375 52.90625 Z M 132.59375 52.90625 "/>
<path style=" stroke:none;fill-rule:nonzero;fill:rgb(98.039216%,74.117647%,16.470588%);fill-opacity:1;" d="M 85.8125 53.9375 C 85 54.234375 83.59375 55.390625 83.59375 55.75 C 83.59375 55.84375 83.765625 56.125 83.96875 56.359375 C 84.328125 56.78125 84.40625 56.796875 85.734375 56.78125 C 86.90625 56.78125 87.40625 56.671875 89.140625 56.125 C 90.265625 55.765625 91.5625 55.421875 92.03125 55.375 C 93.40625 55.21875 93.453125 55.09375 92.328125 54.5625 C 90.1875 53.546875 87.484375 53.28125 85.8125 53.9375 Z M 91.5625 54.609375 L 92.421875 54.890625 L 91.171875 55.078125 C 90.484375 55.1875 89.1875 55.453125 88.28125 55.703125 C 86.546875 56.140625 84.953125 56.265625 84.65625 55.96875 C 84.3125 55.625 85.265625 54.890625 86.640625 54.421875 C 87.5 54.140625 90.4375 54.25 91.5625 54.609375 Z M 91.5625 54.609375 "/>
<path style=" stroke:none;fill-rule:nonzero;fill:rgb(98.039216%,74.117647%,16.470588%);fill-opacity:1;" d="M 109.4375 53.890625 C 108.90625 54.046875 108.0625 54.359375 107.578125 54.609375 C 106.5625 55.09375 106.625 55.21875 107.96875 55.375 C 108.4375 55.421875 109.75 55.765625 110.859375 56.125 C 112.59375 56.671875 113.09375 56.78125 114.265625 56.78125 C 115.59375 56.796875 115.671875 56.78125 116.03125 56.359375 C 116.234375 56.125 116.40625 55.84375 116.40625 55.75 C 116.40625 55.375 115 54.234375 114.15625 53.921875 C 113.03125 53.5 110.84375 53.484375 109.4375 53.890625 Z M 114.015625 54.671875 C 114.984375 55.109375 115.609375 55.703125 115.34375 55.96875 C 115.03125 56.28125 113.4375 56.140625 111.46875 55.640625 C 110.4375 55.375 109.140625 55.109375 108.609375 55.0625 C 107.9375 54.984375 107.703125 54.90625 107.859375 54.8125 C 109.0625 54.140625 112.625 54.0625 114.015625 54.671875 Z M 114.015625 54.671875 "/>
</g>
</svg>
