<?xml version="1.0" encoding="UTF-8"?>
<svg xmlns="http://www.w3.org/2000/svg" xmlns:xlink="http://www.w3.org/1999/xlink" width="200px" height="100px" viewBox="0 0 200 100" version="1.1">
<g id="surface1">
<path style=" stroke:none;fill-rule:nonzero;fill:rgb(98.039216%,74.117647%,16.470588%);fill-opacity:1;" d="M 11.84375 39.234375 C 7.609375 39.75 3.921875 41.578125 1.984375 44.078125 C -0.75 47.640625 -0.609375 53.078125 2.296875 56.046875 C 3.71875 57.5 5.921875 58.265625 8.140625 58.046875 C 11.203125 57.765625 13.203125 56.46875 14.359375 54.0625 C 14.90625 52.921875 14.921875 52.84375 14.921875 51.015625 C 14.921875 49.234375 14.890625 49.09375 14.421875 48.09375 C 13.46875 46.0625 11.828125 44.828125 10.09375 44.8125 C 7.96875 44.796875 7.171875 46.640625 9.078125 47.21875 C 9.625 47.375 9.890625 47.359375 10.8125 47.125 L 11.90625 46.84375 L 12.28125 47.203125 C 12.484375 47.40625 12.859375 47.953125 13.09375 48.421875 C 13.484375 49.21875 13.515625 49.453125 13.515625 51.09375 C 13.515625 52.734375 13.484375 52.953125 13.09375 53.671875 C 12.015625 55.75 9.734375 56.859375 6.953125 56.671875 C 6.03125 56.625 5.40625 56.484375 4.796875 56.203125 C 2.6875 55.25 1.40625 52.84375 1.40625 49.921875 C 1.40625 47.5 2.125 45.8125 3.921875 44.03125 C 4.875 43.078125 5.40625 42.6875 6.578125 42.125 C 8.828125 41.046875 10.765625 40.609375 13.984375 40.515625 C 18.296875 40.375 21.75 41.0625 26.90625 43.0625 C 27.65625 43.359375 28.328125 43.59375 28.40625 43.59375 C 28.46875 43.59375 28.765625 43.390625 29.0625 43.15625 L 29.59375 42.703125 L 27.5625 41.921875 C 22.5625 39.953125 19.5 39.25 15.625 39.140625 C 14.203125 39.109375 12.515625 39.140625 11.84375 39.234375 Z M 11.84375 39.234375 "/>
<path style=" stroke:none;fill-rule:nonzero;fill:rgb(98.039216%,74.117647%,16.470588%);fill-opacity:1;" d="M 182.234375 39.21875 C 179.609375 39.5 176.25 40.421875 172.4375 41.921875 L 170.40625 42.703125 L 170.9375 43.15625 C 171.234375 43.390625 171.53125 43.59375 171.59375 43.59375 C 171.65625 43.59375 172.078125 43.4375 172.53125 43.265625 C 175.609375 42.03125 178.96875 41.078125 181.59375 40.6875 C 184.1875 40.3125 188.078125 40.453125 190.3125 41.015625 C 192.8125 41.625 194.609375 42.578125 196.078125 44.03125 C 197.875 45.8125 198.59375 47.5 198.59375 49.921875 C 198.59375 51.375 198.21875 52.90625 197.59375 53.96875 C 196.578125 55.703125 195.171875 56.546875 193.046875 56.671875 C 190.265625 56.859375 187.984375 55.75 186.90625 53.671875 C 186.515625 52.953125 186.484375 52.734375 186.484375 51.09375 C 186.484375 49.453125 186.515625 49.21875 186.90625 48.421875 C 187.140625 47.953125 187.515625 47.40625 187.71875 47.203125 L 188.09375 46.84375 L 189.1875 47.125 C 190.109375 47.359375 190.375 47.375 190.921875 47.21875 C 192.828125 46.640625 192.03125 44.796875 189.90625 44.8125 C 188.171875 44.828125 186.53125 46.0625 185.578125 48.09375 C 185.109375 49.09375 185.078125 49.234375 185.078125 51.015625 C 185.078125 52.84375 185.09375 52.921875 185.640625 54.0625 C 186.53125 55.921875 188.09375 57.234375 190.0625 57.75 C 193.9375 58.78125 197.453125 57.375 199.03125 54.171875 C 200.609375 50.96875 200.203125 47 197.984375 44.0625 C 195.234375 40.40625 189.03125 38.5 182.234375 39.21875 Z M 182.234375 39.21875 "/>
<path style=" stroke:none;fill-rule:nonzero;fill:rgb(98.039216%,74.117647%,16.470588%);fill-opacity:1;" d="M 71.0625 39.671875 C 69.890625 40.046875 69.21875 40.484375 68.375 41.421875 C 67.421875 42.484375 67.109375 43.453125 67.125 45.3125 C 67.140625 46.953125 67.609375 48.640625 68.375 49.859375 C 68.59375 50.21875 68.75 50.515625 68.71875 50.546875 C 68.6875 50.578125 67.609375 50 66.328125 49.265625 C 60.25 45.78125 54.734375 43.109375 51.09375 41.875 C 45.25 39.875 38.9375 39.65625 33.90625 41.28125 C 30.078125 42.5 26.96875 45.078125 25.359375 48.359375 C 24.640625 49.8125 24.453125 50.6875 24.46875 52.5 C 24.484375 53.890625 24.546875 54.3125 24.890625 55.21875 C 26.234375 58.65625 29.28125 60.78125 32.890625 60.78125 C 34.390625 60.78125 35.484375 60.5 36.953125 59.78125 C 39.015625 58.75 40.546875 57.21875 40.625 56.09375 C 40.703125 55.125 40.609375 54.796875 40.09375 54.28125 C 39.6875 53.875 39.4375 53.75 39.015625 53.75 C 37.859375 53.75 37.28125 54.8125 37.5 56.546875 C 37.609375 57.4375 37.578125 57.484375 36.40625 58.15625 C 35.203125 58.84375 34.03125 59.109375 32.4375 59.03125 C 31.234375 58.984375 30.859375 58.890625 29.953125 58.453125 C 27.03125 57.046875 25.5 53.734375 26.328125 50.578125 C 27.25 47.03125 30.9375 43.703125 34.8125 42.890625 C 36.265625 42.59375 39.65625 42.578125 41.328125 42.875 C 46.4375 43.78125 51.5625 45.859375 63.984375 52.0625 C 71.859375 56.015625 74.546875 57.109375 78.640625 58.109375 C 82.828125 59.140625 87.15625 59.40625 90.078125 58.84375 C 94.890625 57.90625 98.109375 55.109375 99.15625 50.953125 C 99.546875 49.390625 99.40625 47.0625 98.859375 45.90625 C 97.484375 43.0625 93.59375 41.796875 89.8125 42.96875 C 88.015625 43.515625 86.875 44.625 86.875 45.8125 C 86.875 47.203125 88.8125 47.46875 89.9375 46.21875 C 90.125 46.03125 90.4375 45.546875 90.625 45.15625 C 90.828125 44.765625 91.0625 44.40625 91.15625 44.34375 C 91.46875 44.125 93.828125 44.21875 94.65625 44.453125 C 95.796875 44.796875 96.71875 45.546875 97.234375 46.5625 C 97.65625 47.375 97.671875 47.515625 97.625 49.140625 C 97.578125 50.75 97.546875 50.9375 96.984375 52.09375 C 95.859375 54.453125 93.53125 56.21875 90.390625 57.0625 C 88.546875 57.546875 84.515625 57.5625 82.15625 57.0625 C 75.5625 55.6875 70.125 51.796875 68.78125 47.5 C 68.375 46.1875 68.421875 43.859375 68.859375 43.03125 C 69.3125 42.1875 70.3125 41.328125 71.21875 41.03125 C 71.953125 40.765625 74.453125 40.6875 74.78125 40.90625 C 74.875 40.96875 75.15625 41.453125 75.390625 42 C 75.875 43.078125 76.25 43.4375 76.90625 43.4375 C 77.8125 43.4375 78.1875 42.5 77.6875 41.484375 C 76.84375 39.734375 73.625 38.859375 71.0625 39.671875 Z M 71.0625 39.671875 "/>
<path style=" stroke:none;fill-rule:nonzero;fill:rgb(98.039216%,74.117647%,16.470588%);fill-opacity:1;" d="M 125.234375 39.46875 C 122.859375 40.0625 121.328125 42.09375 122.4375 43.1875 C 122.734375 43.5 123.421875 43.515625 123.84375 43.21875 C 124.015625 43.09375 124.359375 42.546875 124.609375 42 C 124.84375 41.453125 125.125 40.96875 125.21875 40.90625 C 125.546875 40.6875 128.046875 40.765625 128.78125 41.03125 C 129.6875 41.328125 130.6875 42.1875 131.140625 43.03125 C 131.578125 43.859375 131.625 46.1875 131.21875 47.5 C 129.875 51.796875 124.4375 55.6875 117.84375 57.0625 C 115.484375 57.5625 111.453125 57.546875 109.609375 57.0625 C 106.46875 56.21875 104.140625 54.453125 103.015625 52.09375 C 102.453125 50.9375 102.421875 50.75 102.375 49.140625 C 102.328125 47.515625 102.34375 47.375 102.765625 46.5625 C 103.28125 45.546875 104.203125 44.796875 105.34375 44.453125 C 106.171875 44.21875 108.546875 44.125 108.84375 44.34375 C 108.921875 44.40625 109.15625 44.765625 109.359375 45.15625 C 110.015625 46.4375 110.78125 47.03125 111.796875 47.03125 C 112.53125 47.03125 113.125 46.46875 113.125 45.75 C 113.125 44.625 111.9375 43.5 110.1875 42.96875 C 106.40625 41.796875 102.515625 43.0625 101.140625 45.90625 C 100.59375 47.0625 100.453125 49.390625 100.84375 50.953125 C 101.671875 54.265625 103.984375 56.8125 107.328125 58.109375 C 110.859375 59.46875 115.78125 59.46875 121.359375 58.109375 C 125.453125 57.109375 128.140625 56.015625 136.015625 52.0625 C 148.4375 45.859375 153.5625 43.78125 158.671875 42.875 C 160.546875 42.546875 163.859375 42.59375 165.421875 42.96875 C 169.3125 43.890625 172.765625 47.09375 173.671875 50.578125 C 174.5 53.734375 172.96875 57.046875 170.046875 58.453125 C 168 59.4375 165.140625 59.21875 163.21875 57.9375 L 162.453125 57.421875 L 162.484375 56.046875 C 162.515625 54.71875 162.5 54.671875 162.046875 54.21875 C 160.84375 53 158.96875 54.375 159.375 56.171875 C 159.578125 57.046875 160.234375 57.90625 161.296875 58.703125 C 163.1875 60.109375 165.0625 60.78125 167.109375 60.78125 C 173.1875 60.78125 177.234375 54.71875 174.9375 49.046875 C 172.484375 42.984375 165.328125 39.546875 156.671875 40.296875 C 152.453125 40.640625 149.234375 41.53125 144.59375 43.59375 C 141.921875 44.78125 137.4375 47.125 133.671875 49.265625 C 132.390625 50 131.3125 50.578125 131.28125 50.546875 C 131.25 50.515625 131.40625 50.21875 131.625 49.859375 C 132.390625 48.640625 132.859375 46.953125 132.875 45.3125 C 132.890625 43.25 132.578125 42.40625 131.34375 41.15625 C 130.078125 39.90625 129.078125 39.5 127.03125 39.4375 C 126.21875 39.421875 125.40625 39.421875 125.234375 39.46875 Z M 125.234375 39.46875 "/>
<path style=" stroke:none;fill-rule:nonzero;fill:rgb(98.039216%,74.117647%,16.470588%);fill-opacity:1;" d="M 32.15625 44.375 C 31.84375 44.546875 31.546875 44.75 31.5 44.828125 C 31.359375 45.03125 39.28125 48.53125 44.0625 50.359375 C 45.3125 50.828125 47.953125 51.78125 49.921875 52.46875 C 51.90625 53.15625 53.625 53.765625 53.75 53.8125 C 53.875 53.875 54.109375 54.109375 54.25 54.375 C 54.765625 55.296875 56.5625 55.3125 56.6875 54.40625 C 56.796875 53.625 55.84375 53.046875 52.625 51.953125 C 47.78125 50.296875 40.15625 47.34375 36.59375 45.765625 C 34.484375 44.828125 32.765625 44.0625 32.75 44.0625 C 32.734375 44.078125 32.46875 44.21875 32.15625 44.375 Z M 32.15625 44.375 "/>
<path style=" stroke:none;fill-rule:nonzero;fill:rgb(98.039216%,74.117647%,16.470588%);fill-opacity:1;" d="M 163.34375 45.78125 C 159.84375 47.34375 152.296875 50.265625 147.375 51.953125 C 144.15625 53.046875 143.203125 53.625 143.3125 54.40625 C 143.4375 55.3125 145.234375 55.296875 145.75 54.375 C 145.890625 54.109375 146.125 53.875 146.25 53.8125 C 146.375 53.765625 148.109375 53.15625 150.078125 52.46875 C 152.0625 51.78125 154.6875 50.828125 155.9375 50.359375 C 160.734375 48.515625 168.640625 45.03125 168.5 44.828125 C 168.421875 44.6875 167.25 44.046875 167.15625 44.078125 C 167.125 44.078125 165.40625 44.84375 163.34375 45.78125 Z M 163.34375 45.78125 "/>
<path style=" stroke:none;fill-rule:nonzero;fill:rgb(98.039216%,74.117647%,16.470588%);fill-opacity:1;" d="M 48.125 49.375 C 48.125 49.421875 48.703125 49.671875 49.421875 49.921875 C 50.6875 50.390625 50.75 50.390625 54.734375 50.46875 C 56.9375 50.515625 58.75 50.5 58.75 50.453125 C 58.75 50.390625 58.3125 50.15625 57.78125 49.90625 L 56.796875 49.453125 L 52.453125 49.375 C 50.078125 49.328125 48.125 49.328125 48.125 49.375 Z M 48.125 49.375 "/>
<path style=" stroke:none;fill-rule:nonzero;fill:rgb(98.039216%,74.117647%,16.470588%);fill-opacity:1;" d="M 147.421875 49.375 L 143.203125 49.453125 L 142.234375 49.90625 C 141.6875 50.15625 141.25 50.390625 141.25 50.453125 C 141.25 50.5 143.0625 50.515625 145.265625 50.46875 C 149.25 50.390625 149.3125 50.390625 150.59375 49.921875 C 151.296875 49.671875 151.875 49.40625 151.875 49.34375 C 151.875 49.265625 151.828125 49.234375 151.765625 49.25 C 151.6875 49.265625 149.75 49.328125 147.421875 49.375 Z M 147.421875 49.375 "/>
<path style=" stroke:none;fill-rule:nonzero;fill:rgb(98.039216%,74.117647%,16.470588%);fill-opacity:1;" d="M 2.1875 49.921875 L 2.1875 50.46875 L 7.515625 50.46875 C 12.3125 50.46875 12.84375 50.4375 12.75 50.21875 C 12.703125 50.078125 12.65625 49.84375 12.65625 49.671875 C 12.65625 49.390625 12.484375 49.375 7.421875 49.375 L 2.1875 49.375 Z M 2.1875 49.921875 "/>
<path style=" stroke:none;fill-rule:nonzero;fill:rgb(98.039216%,74.117647%,16.470588%);fill-opacity:1;" d="M 15.8125 49.875 L 15.859375 50.390625 L 19.78125 50.4375 L 23.703125 50.46875 L 23.859375 49.921875 L 24.03125 49.375 L 15.765625 49.375 Z M 15.8125 49.875 "/>
<path style=" stroke:none;fill-rule:nonzero;fill:rgb(98.039216%,74.117647%,16.470588%);fill-opacity:1;" d="M 27.59375 49.515625 C 27.546875 49.578125 27.4375 49.828125 27.359375 50.046875 L 27.203125 50.46875 L 34.53125 50.5 C 38.578125 50.53125 41.875 50.515625 41.875 50.46875 C 41.875 50.421875 41.296875 50.15625 40.578125 49.875 L 39.28125 49.375 L 33.484375 49.375 C 30.28125 49.375 27.640625 49.4375 27.59375 49.515625 Z M 27.59375 49.515625 "/>
<path style=" stroke:none;fill-rule:nonzero;fill:rgb(98.039216%,74.117647%,16.470588%);fill-opacity:1;" d="M 71.03125 49.921875 L 71.4375 50.46875 L 96.40625 50.46875 L 96.40625 49.375 L 70.609375 49.375 Z M 71.03125 49.921875 "/>
<path style=" stroke:none;fill-rule:nonzero;fill:rgb(98.039216%,74.117647%,16.470588%);fill-opacity:1;" d="M 103.59375 49.921875 L 103.59375 50.46875 L 128.5625 50.46875 L 128.96875 49.921875 L 129.390625 49.375 L 103.59375 49.375 Z M 103.59375 49.921875 "/>
<path style=" stroke:none;fill-rule:nonzero;fill:rgb(98.039216%,74.117647%,16.470588%);fill-opacity:1;" d="M 159.34375 49.890625 C 158.671875 50.171875 158.125 50.421875 158.125 50.46875 C 158.125 50.515625 161.421875 50.53125 165.46875 50.5 L 172.8125 50.46875 L 172.609375 49.953125 L 172.40625 49.453125 L 166.46875 49.421875 L 160.546875 49.40625 Z M 159.34375 49.890625 "/>
<path style=" stroke:none;fill-rule:nonzero;fill:rgb(98.039216%,74.117647%,16.470588%);fill-opacity:1;" d="M 176.140625 49.921875 L 176.296875 50.46875 L 180.171875 50.46875 C 184.3125 50.46875 184.21875 50.484375 184.21875 49.671875 C 184.21875 49.390625 184.0625 49.375 180.09375 49.375 L 175.96875 49.375 Z M 176.140625 49.921875 "/>
<path style=" stroke:none;fill-rule:nonzero;fill:rgb(98.039216%,74.117647%,16.470588%);fill-opacity:1;" d="M 187.34375 49.671875 C 187.34375 49.84375 187.296875 50.078125 187.25 50.21875 C 187.15625 50.4375 187.6875 50.46875 192.484375 50.46875 L 197.8125 50.46875 L 197.8125 49.375 L 192.578125 49.375 C 187.515625 49.375 187.34375 49.390625 187.34375 49.671875 Z M 187.34375 49.671875 "/>
</g>
</svg>
