<?xml version="1.0" encoding="UTF-8"?>
<svg xmlns="http://www.w3.org/2000/svg" xmlns:xlink="http://www.w3.org/1999/xlink" width="200px" height="100px" viewBox="0 0 200 100" version="1.1">
<g id="surface1">
<path style=" stroke:none;fill-rule:nonzero;fill:rgb(98.039216%,74.117647%,16.470588%);fill-opacity:1;" d="M 98.984375 40 C 96.921875 40.046875 95.40625 40.140625 95.421875 40.21875 C 95.4375 40.296875 95.859375 40.515625 96.359375 40.71875 C 97.6875 41.203125 98.46875 41.625 98.875 42.078125 L 99.25 42.46875 L 98.875 42.71875 C 98.46875 42.984375 96.765625 43.265625 95.59375 43.28125 C 94.546875 43.28125 94.53125 43.53125 95.59375 43.65625 C 96.796875 43.796875 97.953125 44.359375 98.625 45.140625 C 99.171875 45.78125 99.671875 47.03125 99.703125 47.796875 C 99.703125 48.015625 99.765625 48.34375 99.84375 48.515625 C 100 48.90625 100.09375 48.6875 100.21875 47.609375 C 100.46875 45.515625 101.921875 43.921875 104.03125 43.4375 C 104.46875 43.328125 104.84375 43.1875 104.84375 43.109375 C 104.84375 43.03125 104.078125 42.96875 103.140625 42.96875 C 102.21875 42.96875 101.234375 42.890625 100.953125 42.796875 L 100.453125 42.625 L 100.765625 42.28125 C 101.0625 41.96875 102.5625 41.1875 104.265625 40.484375 C 104.6875 40.296875 104.984375 40.09375 104.921875 40 C 104.875 39.90625 104.34375 39.859375 103.703125 39.875 C 103.078125 39.890625 100.96875 39.953125 98.984375 40 Z M 98.984375 40 "/>
<path style=" stroke:none;fill-rule:nonzero;fill:rgb(98.039216%,74.117647%,16.470588%);fill-opacity:1;" d="M 107.046875 46.4375 C 105.953125 46.625 105.234375 47.21875 104.609375 48.453125 C 104.03125 49.59375 103.546875 51.71875 103.875 51.71875 C 103.9375 51.71875 104.21875 51.375 104.5 50.953125 C 105 50.203125 106.40625 48.796875 107.84375 47.578125 C 108.25 47.234375 108.59375 46.859375 108.625 46.734375 C 108.6875 46.4375 107.90625 46.28125 107.046875 46.4375 Z M 107.046875 46.4375 "/>
<path style=" stroke:none;fill-rule:nonzero;fill:rgb(98.039216%,74.117647%,16.470588%);fill-opacity:1;" d="M 91.171875 46.71875 C 91.09375 46.859375 91.296875 47.15625 91.8125 47.625 C 93.734375 49.375 95 50.671875 95.421875 51.3125 C 96.1875 52.53125 96.296875 52.125 95.765625 50.140625 C 95.34375 48.578125 94.75 47.640625 93.84375 47.109375 C 93.015625 46.625 91.375 46.390625 91.171875 46.71875 Z M 91.171875 46.71875 "/>
<path style=" stroke:none;fill-rule:nonzero;fill:rgb(98.039216%,74.117647%,16.470588%);fill-opacity:1;" d="M 184.296875 48.53125 C 180.046875 49.828125 166.921875 51.671875 154.21875 52.734375 C 152.375 52.890625 151.71875 53 151.71875 53.140625 C 151.71875 53.21875 153.6875 53.28125 156.375 53.28125 C 173.953125 53.28125 191.96875 55.28125 196.953125 57.765625 C 197.84375 58.21875 198.75 59.015625 198.75 59.359375 C 198.75 59.515625 198.625 59.46875 198.328125 59.1875 C 196.78125 57.75 192.109375 56.546875 184.921875 55.71875 C 175.9375 54.6875 164.953125 54.296875 148.359375 54.421875 C 129.9375 54.5625 116.171875 55.265625 109.8125 56.421875 C 107.875 56.765625 105.515625 56.828125 104.5 56.546875 C 103.484375 56.28125 102.421875 55.6875 101.78125 55.046875 C 101.078125 54.3125 100.34375 52.828125 100.21875 51.828125 C 100.09375 50.921875 99.90625 50.890625 99.765625 51.75 C 99.421875 53.765625 98.328125 55.296875 96.59375 56.125 C 95.640625 56.578125 95.375 56.625 93.75 56.6875 C 92.375 56.734375 91.546875 56.671875 90.234375 56.421875 C 84.03125 55.265625 70.359375 54.5625 51.5625 54.421875 C 36.765625 54.3125 26.9375 54.59375 18.75 55.328125 C 9.875 56.125 3.890625 57.40625 2 58.921875 C 1.359375 59.421875 1.171875 59.328125 1.765625 58.796875 C 4.5625 56.21875 18.71875 54.15625 37.421875 53.59375 C 40.171875 53.515625 43.734375 53.4375 45.359375 53.4375 C 48.421875 53.4375 49.234375 53.234375 46.90625 53.0625 C 44.359375 52.859375 34.78125 51.875 31.5625 51.484375 C 24.359375 50.59375 18.03125 49.5 15.4375 48.6875 L 14.21875 48.3125 L 14.578125 48.78125 C 15.796875 50.375 15.953125 50.765625 15.609375 51.390625 C 15.21875 52.125 14.203125 52.453125 11.09375 52.890625 C 4.59375 53.796875 1.328125 54.9375 0.359375 56.65625 C -0.078125 57.421875 -0.09375 58.140625 0.328125 59 C 0.828125 60.046875 0.859375 60.0625 2.6875 59.703125 C 8.3125 58.578125 19.109375 57.5 31.5625 56.796875 C 56.390625 55.40625 77.359375 55.828125 90.546875 57.984375 C 94.984375 58.71875 96.671875 58.515625 98.1875 57.0625 C 98.875 56.390625 99.625 54.9375 99.78125 53.953125 C 99.90625 53.140625 100.078125 53.203125 100.21875 54.078125 C 100.34375 54.90625 100.953125 56.171875 101.5625 56.90625 C 102.734375 58.328125 105.046875 58.734375 108.515625 58.140625 C 114.328125 57.15625 119.78125 56.640625 128.875 56.234375 C 133.640625 56.03125 155.140625 56.125 160.390625 56.390625 C 178.484375 57.28125 189.9375 58.3125 197.234375 59.703125 C 198.171875 59.875 198.953125 60 198.984375 59.96875 C 199.265625 59.703125 200 58 200 57.640625 C 200 56.09375 198.484375 54.875 195.4375 53.9375 C 193.953125 53.46875 192.421875 53.171875 188.890625 52.65625 C 185.78125 52.203125 185.125 52.015625 184.53125 51.359375 C 184.046875 50.859375 184.21875 50.140625 185.078125 49.03125 C 185.46875 48.53125 185.734375 48.125 185.65625 48.140625 C 185.59375 48.140625 184.984375 48.3125 184.296875 48.53125 Z M 184.296875 48.53125 "/>
<path style=" stroke:none;fill-rule:nonzero;fill:rgb(98.039216%,74.117647%,16.470588%);fill-opacity:1;" d="M 108.09375 50.0625 C 107.03125 50.34375 106.34375 50.953125 105.796875 52.078125 C 105.296875 53.078125 104.75 55.125 104.921875 55.296875 C 104.984375 55.34375 105.15625 55.21875 105.328125 55 C 106.5 53.484375 107.125 52.8125 108.40625 51.703125 C 109.1875 51.015625 109.84375 50.359375 109.84375 50.234375 C 109.84375 49.8125 109.234375 49.75 108.09375 50.0625 Z M 108.09375 50.0625 "/>
<path style=" stroke:none;fill-rule:nonzero;fill:rgb(98.039216%,74.117647%,16.470588%);fill-opacity:1;" d="M 90.046875 50.421875 C 89.984375 50.59375 90.125 50.828125 90.484375 51.140625 C 92.40625 52.78125 93.53125 53.90625 94.09375 54.703125 C 94.453125 55.203125 94.796875 55.578125 94.875 55.5 C 95.015625 55.359375 94.625 53.625 94.203125 52.5625 C 93.625 51.125 92.25 50.15625 90.75 50.15625 C 90.328125 50.15625 90.109375 50.234375 90.046875 50.421875 Z M 90.046875 50.421875 "/>
</g>
</svg>
