<?xml version="1.0" encoding="UTF-8"?>
<svg xmlns="http://www.w3.org/2000/svg" xmlns:xlink="http://www.w3.org/1999/xlink" width="200px" height="100px" viewBox="0 0 200 100" version="1.1">
<g id="surface1">
<path style=" stroke:none;fill-rule:nonzero;fill:rgb(98.039216%,74.117647%,16.470588%);fill-opacity:1;" d="M 5 41.625 C 2.625 42.3125 0.984375 43.859375 0.3125 46.0625 C -0.71875 49.390625 1.09375 53.234375 4.4375 54.84375 C 6.15625 55.65625 7.203125 55.84375 9.796875 55.734375 C 14.359375 55.578125 17.96875 54.140625 24.859375 49.765625 C 26.109375 48.96875 27.6875 48.03125 28.375 47.6875 C 30.171875 46.796875 34.203125 45.09375 36.578125 44.234375 L 38.625 43.484375 L 37.84375 43.375 C 35.921875 43.125 32.328125 44.125 27.5625 46.25 C 25.171875 47.3125 24.6875 47.578125 20.46875 50 C 17.828125 51.53125 15.046875 52.828125 13.59375 53.203125 C 11.265625 53.8125 7.59375 53.34375 5.828125 52.203125 C 4.125 51.109375 2.78125 49.21875 2.5625 47.640625 C 2.28125 45.625 4.234375 43.921875 7 43.78125 C 8.203125 43.71875 8.359375 43.75 9.28125 44.203125 C 10.46875 44.78125 11.703125 45.953125 12.203125 46.984375 C 12.484375 47.53125 12.59375 48.078125 12.625 49.015625 C 12.65625 49.734375 12.734375 50.3125 12.796875 50.3125 C 13.03125 50.3125 14.0625 48.34375 14.234375 47.53125 C 14.765625 45.1875 13.125 42.9375 10.125 41.875 C 8.90625 41.4375 6.09375 41.296875 5 41.625 Z M 5 41.625 "/>
<path style=" stroke:none;fill-rule:nonzero;fill:rgb(98.039216%,74.117647%,16.470588%);fill-opacity:1;" d="M 190.625 41.65625 C 187 42.609375 185.015625 45.203125 185.84375 47.859375 C 186.078125 48.640625 187.015625 50.3125 187.203125 50.3125 C 187.265625 50.3125 187.34375 49.734375 187.375 49.015625 C 187.40625 48.078125 187.515625 47.53125 187.796875 46.984375 C 188.296875 45.953125 189.53125 44.78125 190.71875 44.203125 C 191.640625 43.75 191.796875 43.71875 193 43.78125 C 194.609375 43.875 195.703125 44.3125 196.546875 45.234375 C 196.890625 45.609375 197.25 46.1875 197.359375 46.546875 C 197.875 48.265625 196.234375 51.015625 193.890625 52.390625 C 192.25 53.359375 188.53125 53.765625 186.421875 53.21875 C 184.90625 52.8125 182.40625 51.65625 179.71875 50.109375 C 175.203125 47.515625 174.84375 47.328125 172.4375 46.25 C 167.671875 44.125 164.078125 43.125 162.15625 43.375 L 161.375 43.484375 L 163.421875 44.234375 C 165.796875 45.09375 169.828125 46.796875 171.625 47.6875 C 172.3125 48.03125 173.890625 48.96875 175.140625 49.765625 C 181.96875 54.09375 185.640625 55.5625 190.09375 55.734375 C 192.671875 55.84375 193.921875 55.640625 195.5625 54.84375 C 198.890625 53.234375 200.703125 49.359375 199.6875 46.0625 C 199 43.828125 197.328125 42.265625 194.921875 41.625 C 193.90625 41.34375 191.71875 41.359375 190.625 41.65625 Z M 190.625 41.65625 "/>
<path style=" stroke:none;fill-rule:nonzero;fill:rgb(98.039216%,74.117647%,16.470588%);fill-opacity:1;" d="M 145.8125 42.515625 C 139.171875 42.890625 130.71875 44.40625 123.515625 46.5 C 122.484375 46.796875 119.921875 47.59375 117.8125 48.28125 C 106.21875 52 101.578125 52.9375 95.4375 52.78125 C 94 52.75 92.84375 52.734375 92.859375 52.75 C 92.890625 52.78125 93.78125 52.921875 94.84375 53.078125 C 97.59375 53.46875 104.9375 53.453125 108.125 53.078125 C 115.125 52.21875 121.046875 50.828125 129.328125 48.109375 C 133.53125 46.734375 135.390625 46.296875 139.375 45.71875 C 145.84375 44.78125 152.375 44.9375 155.9375 46.109375 C 158.8125 47.046875 160.625 48.609375 160.625 50.125 C 160.625 50.75 160.546875 50.90625 159.953125 51.46875 C 158.9375 52.453125 157.8125 52.734375 155.078125 52.734375 C 153.140625 52.734375 152.78125 52.6875 151.953125 52.359375 C 150.640625 51.828125 149.546875 50.6875 148.71875 48.984375 C 148 47.484375 147.921875 47.484375 147.421875 49.03125 C 146.6875 51.265625 147.953125 53.375 150.859375 54.765625 C 152.71875 55.65625 153.90625 55.953125 156.171875 56.046875 C 159.1875 56.1875 161.109375 55.5625 162.796875 53.921875 C 165.1875 51.578125 164.6875 48.546875 161.453125 45.96875 C 158.9375 43.9375 155.796875 42.796875 152 42.5 C 149.859375 42.328125 148.859375 42.328125 145.8125 42.515625 Z M 145.8125 42.515625 "/>
<path style=" stroke:none;fill-rule:nonzero;fill:rgb(98.039216%,74.117647%,16.470588%);fill-opacity:1;" d="M 39.125 45 C 37.203125 45.203125 35.75 45.828125 34.5 47 C 33.359375 48.0625 32.90625 49.03125 32.890625 50.390625 C 32.890625 51.34375 32.96875 51.609375 33.421875 52.46875 C 34.03125 53.59375 35.734375 55.28125 37.0625 56.0625 C 38.390625 56.84375 40.265625 57.625 41.984375 58.078125 C 43.484375 58.484375 43.625 58.5 48.125 58.515625 C 53.265625 58.515625 55.40625 58.328125 60.9375 57.40625 C 67.359375 56.328125 71.609375 55.265625 78.984375 52.875 C 87.359375 50.15625 91.46875 49.09375 95.9375 48.515625 C 97.9375 48.25 102.375 48.140625 103.90625 48.328125 C 104.578125 48.40625 104.640625 48.390625 104.21875 48.28125 C 102.890625 47.953125 99.046875 47.65625 95.890625 47.65625 C 87.328125 47.65625 79.234375 49.1875 67.734375 52.96875 C 63.671875 54.296875 60.890625 54.9375 56.71875 55.5 C 54.578125 55.78125 53.375 55.84375 49.6875 55.859375 C 45.625 55.859375 45.078125 55.828125 43.4375 55.5 C 41.3125 55.0625 39.765625 54.5 38.546875 53.6875 C 35.09375 51.390625 36.078125 48.828125 40.609375 48.28125 C 43.46875 47.921875 45.84375 48.59375 47.203125 50.125 C 47.8125 50.8125 48.90625 52.8125 48.90625 53.234375 C 48.90625 53.6875 49.203125 53.390625 49.53125 52.609375 C 50.015625 51.53125 50.03125 50.1875 49.578125 49.1875 C 48.34375 46.46875 43.53125 44.546875 39.125 45 Z M 39.125 45 "/>
</g>
</svg>
