<svg width="170" height="33" viewBox="0 0 170 33" fill="none" xmlns="http://www.w3.org/2000/svg">
<mask id="mask0-273803" mask-type="alpha" maskUnits="userSpaceOnUse" x="0" y="0" width="170" height="33">
<path fill-rule="evenodd" clip-rule="evenodd" d="M0 0H170V33H0V0Z" fill="white"/>
</mask>
<g mask="url(#mask0-273803)">
<path fill-rule="evenodd" clip-rule="evenodd" d="M167.853 10.3166C172.206 6.97557 169.436 0.384452 164.058 0.0297333C158.634 -0.330848 154.645 2.62905 151.271 6.6873C151.271 6.6873 150.737 7.34202 150.216 8.1179C149.182 8.05341 91.8731 8.08957 91.8731 8.08957C91.1265 5.04759 88.3317 2.77856 84.9999 2.77856C81.666 2.77856 78.8732 5.04759 78.1266 8.08957C78.1266 8.08957 20.8186 8.05341 19.7835 8.1179C19.2605 7.34202 18.7294 6.6873 18.7294 6.6873C15.3547 2.62905 11.3671 -0.330848 5.9411 0.0297333C0.56405 0.384452 -2.20583 6.97557 2.14712 10.3166C3.96576 11.714 7.25268 12.3648 9.13919 9.71365C10.6224 7.33029 8.8607 3.78995 5.5658 4.07431C4.7024 4.14857 4.00668 4.40069 3.90188 5.43064C3.82003 6.25148 4.43489 6.98046 5.27234 7.05668C5.46207 7.07666 5.60669 7.04385 5.73601 7.01451C5.92918 6.97068 6.08821 6.9346 6.31242 7.09381C7.0241 7.60097 6.25253 9.83971 3.95877 8.2039C1.80276 6.66776 2.88276 3.35803 6.04092 2.96325C10.6933 2.37889 14.8476 6.36092 18.1346 10.7289C18.454 11.153 19.1487 11.5762 20.0939 11.5762H60.8665L60.8665 11.5762C60.7816 11.6338 60.6968 11.6915 60.617 11.7521C56.2411 15.0677 58.968 21.6744 64.3441 22.0643C66.6748 22.2324 68.7409 21.7839 70.6125 20.8995C72.7625 20.3523 74.9355 20.6464 76.9308 21.7799C80.1459 23.6083 82.6911 27.4672 83.5745 31.8547C83.5745 31.8547 83.5752 31.8555 83.5758 31.8565C83.5762 31.8571 83.5765 31.8579 83.5765 31.8586C83.6464 32.3853 84.0856 33 84.9999 33C85.9132 33 86.3524 32.3853 86.4232 31.8586C86.4232 31.8567 86.4252 31.8547 86.4252 31.8547C87.3076 27.4672 89.8539 23.6083 93.0669 21.7799C95.0643 20.6464 97.2362 20.3523 99.3873 20.8995C101.259 21.7839 103.325 22.2324 105.656 22.0643C111.031 21.6744 113.76 15.0677 109.384 11.7521C109.31 11.6964 109.231 11.6432 109.152 11.5902L109.131 11.5762H149.906C150.85 11.5762 151.544 11.153 151.864 10.7289C155.152 6.36092 159.306 2.37889 163.96 2.96325C167.118 3.35803 168.195 6.66776 166.041 8.2039C163.746 9.83971 162.976 7.60097 163.687 7.09381C163.912 6.93457 164.071 6.9707 164.264 7.01454C164.393 7.04387 164.537 7.07666 164.726 7.05668C165.563 6.98046 166.18 6.25148 166.096 5.43064C165.994 4.40069 165.295 4.14857 164.434 4.07431C161.137 3.78995 159.378 7.33029 160.861 9.71365C162.745 12.3648 166.035 11.714 167.853 10.3166ZM81.4874 9.70291C81.4874 7.80717 83.0635 6.26517 84.9999 6.26517C86.9373 6.26517 88.5114 7.80717 88.5114 9.70291C88.5114 11.5996 86.9373 13.1416 84.9999 13.1416C83.0635 13.1416 81.4874 11.5996 81.4874 9.70291ZM107.586 13.8765C105.279 12.2543 104.524 14.497 105.239 15.0002C105.465 15.1598 105.624 15.1225 105.817 15.0771C105.946 15.0469 106.09 15.0131 106.28 15.0315C107.116 15.1019 107.736 15.8269 107.658 16.6497C107.563 17.6807 106.868 17.9357 106.005 18.0178C102.712 18.3217 100.927 14.7911 102.397 12.397C102.621 12.0765 102.868 11.8058 103.128 11.5762H93.5022C96.7991 15.8709 100.938 19.7357 105.537 19.1288C108.693 18.7145 109.75 15.3999 107.586 13.8765ZM91.1645 13.0918C89.9497 15.1995 87.644 16.6282 84.9999 16.6282C82.3558 16.6282 80.05 15.1995 78.8363 13.0918C78.2334 14.2028 77.1733 15.4839 77.1733 15.4839C76.4117 16.3859 75.6192 17.2321 74.7878 17.9992C76.0195 18.2357 77.2282 18.6627 78.3891 19.3213C81.1899 20.9132 83.5046 23.6102 84.9999 26.8965C86.4961 23.6102 88.8098 20.9132 91.6106 19.3213C92.7715 18.6627 93.9802 18.2357 95.211 17.9992C94.3815 17.2321 93.587 16.3859 92.8264 15.4839C92.8264 15.4839 91.7663 14.2028 91.1645 13.0918ZM66.8714 11.5762C67.1319 11.8058 67.3784 12.0765 67.603 12.397C69.0723 14.7911 67.2876 18.3217 63.9947 18.0178C63.1313 17.9357 62.4376 17.6807 62.3398 16.6497C62.2629 15.8269 62.8818 15.1019 63.7202 15.0315C63.9093 15.0131 64.0535 15.0469 64.1823 15.0771C64.3759 15.1225 64.535 15.1598 64.7603 15.0002C65.476 14.497 64.7184 12.2543 62.4136 13.8765C60.2496 15.3999 61.3067 18.7145 64.4628 19.1288C69.0613 19.7357 73.1997 15.8709 76.4976 11.5762H66.8714Z" fill="url(#paint0_radial-389293)"/>
</g>
<defs>
<radialGradient id="paint0_radial-389293" cx="0" cy="0" r="1" gradientUnits="userSpaceOnUse" gradientTransform="translate(92.424 7.32505) scale(89.5324 17.3798)">
<stop stop-color="#DEB84A"/>
<stop offset="1" stop-color="#C49129"/>
</radialGradient>
</defs>
</svg>